<?xml version="1.0" encoding="UTF-8"?>
<svg width="78px" height="80px" viewBox="0 0 78 80" version="1.1" xmlns="http://www.w3.org/2000/svg" xmlns:xlink="http://www.w3.org/1999/xlink">
    <!-- Generator: Sketch 52.3 (67297) - http://www.bohemiancoding.com/sketch -->
    <title>Shape</title>
    <desc>Created with Sketch.</desc>
    <g id="Symbols" stroke="none" stroke-width="1" fill="none" fill-rule="evenodd">
        <g id="Withdraw-2-(Dark)" transform="translate(-149.000000, -63.000000)" fill="#565D7F" fill-rule="nonzero">
            <path d="M182.885667,68.1339644 L182.885667,125.480347 L157.802306,100.4266 C155.797694,98.4243542 152.508072,98.4243542 150.50346,100.4266 C148.498847,102.428846 148.498847,105.663244 150.50346,107.66549 L184.376277,141.498315 C186.38089,143.500562 189.61911,143.500562 191.623723,141.498315 L225.49654,107.66549 C227.501153,105.663244 227.501153,102.428846 225.49654,100.4266 C223.491928,98.4243542 220.253707,98.4243542 218.249094,100.4266 L193.165733,125.480347 L193.165733,68.1339644 C193.165733,65.310284 190.852718,63 188.0257,63 C185.198682,63 182.885667,65.310284 182.885667,68.1339644 Z" id="Shape" transform="translate(188.000000, 103.000000) scale(1, -1) translate(-188.000000, -103.000000) "></path>
        </g>
    </g>
</svg>