<?xml version="1.0" encoding="UTF-8"?>
<svg width="16px" height="16px" viewBox="0 0 16 16" version="1.1" xmlns="http://www.w3.org/2000/svg" xmlns:xlink="http://www.w3.org/1999/xlink">
    <!-- Generator: Sketch 52.3 (67297) - http://www.bohemiancoding.com/sketch -->
    <title>Shape Copy</title>
    <desc>Created with Sketch.</desc>
    <g id="Symbols" stroke="none" stroke-width="1" fill="none" fill-rule="evenodd">
        <g id="Deposit-4-(Dark)" transform="translate(-305.000000, -646.000000)" fill="#565D7F" fill-rule="nonzero">
            <g id="Bottom-Navigation" transform="translate(0.000000, 630.000000)">
                <path d="M311.5925,30.5825 L311.5925,19.4125 L306.7125,24.2925 C306.3225,24.6825 305.6825,24.6825 305.2925,24.2925 C304.9025,23.9025 304.9025,23.2725 305.2925,22.8825 L311.8825,16.2925 C312.2725,15.9025 312.9025,15.9025 313.2925,16.2925 L319.8825,22.8825 C320.2725,23.2725 320.2725,23.9025 319.8825,24.2925 C319.4925,24.6825 318.8625,24.6825 318.4725,24.2925 L313.5925,19.4125 L313.5925,30.5825 C313.5925,31.1325 313.1425,31.5825 312.5925,31.5825 C312.0425,31.5825 311.5925,31.1325 311.5925,30.5825 Z" id="Shape-Copy"></path>
            </g>
        </g>
    </g>
</svg>