<?xml version="1.0" encoding="UTF-8"?>
<svg width="14px" height="14px" viewBox="0 0 14 14" version="1.1" xmlns="http://www.w3.org/2000/svg" xmlns:xlink="http://www.w3.org/1999/xlink">
    <!-- Generator: Sketch 52.3 (67297) - http://www.bohemiancoding.com/sketch -->
    <title>Shape Copy 2</title>
    <desc>Created with Sketch.</desc>
    <g id="Symbols" stroke="none" stroke-width="1" fill="none" fill-rule="evenodd">
        <g id="Deposit-1-(Dark)" transform="translate(-79.000000, -387.000000)" fill="#FFFFFF" fill-rule="nonzero">
            <path d="M92,395 L87,395 L87,400 C87,400.55 86.55,401 86,401 C85.45,401 85,400.55 85,400 L85,395 L80,395 C79.45,395 79,394.55 79,394 C79,393.45 79.45,393 80,393 L85,393 L85,388 C85,387.45 85.45,387 86,387 C86.55,387 87,387.45 87,388 L87,393 L92,393 C92.55,393 93,393.45 93,394 C93,394.55 92.55,395 92,395 Z" id="Shape-Copy-2"></path>
        </g>
    </g>
</svg>