<?xml version="1.0" encoding="UTF-8"?>
<svg width="16px" height="16px" viewBox="0 0 16 16" version="1.1" xmlns="http://www.w3.org/2000/svg" xmlns:xlink="http://www.w3.org/1999/xlink">
    <!-- Generator: Sketch 52.3 (67297) - http://www.bohemiancoding.com/sketch -->
    <title>Shape Copy</title>
    <desc>Created with Sketch.</desc>
    <g id="Symbols" stroke="none" stroke-width="1" fill="none" fill-rule="evenodd">
        <g id="Home-(Dark)-Copy" transform="translate(-31.000000, -537.000000)" fill="#FF5050" fill-rule="nonzero">
            <path d="M37.5925,538 L37.5925,549.17 L32.7125,544.29 C32.3225,543.9 31.6825,543.9 31.2925,544.29 C30.9025,544.68 30.9025,545.31 31.2925,545.7 L37.8825,552.29 C38.2725,552.68 38.9025,552.68 39.2925,552.29 L45.8825,545.7 C46.2725,545.31 46.2725,544.68 45.8825,544.29 C45.4925,543.9 44.8625,543.9 44.4725,544.29 L39.5925,549.17 L39.5925,538 C39.5925,537.45 39.1425,537 38.5925,537 C38.0425,537 37.5925,537.45 37.5925,538 Z" id="Shape-Copy"></path>
        </g>
    </g>
</svg>